<?xml version="1.0" standalone="no"?>
<!DOCTYPE svg PUBLIC "-//W3C//DTD SVG 20010904//EN"
 "http://www.w3.org/TR/2001/REC-SVG-20010904/DTD/svg10.dtd">
<svg version="1.0" xmlns="http://www.w3.org/2000/svg"
 width="400.000000pt" height="400.000000pt" viewBox="0 0 400.000000 400.000000"
 preserveAspectRatio="xMidYMid meet">
<metadata>
Created by potrace 1.14, written by Peter Selinger 2001-2017
</metadata>
<g transform="translate(0.000000,400.000000) scale(0.100000,-0.100000)"
fill="#000000" stroke="none">
<path d="M873 2825 c-25 -18 -31 -62 -13 -96 10 -17 21 -19 95 -18 100 2 129
-12 144 -68 7 -24 11 -204 11 -483 0 -417 -2 -448 -20 -487 -22 -50 -45 -58
-130 -50 -49 6 -62 3 -84 -14 -46 -36 -29 -100 30 -115 13 -3 68 -1 122 6 95
12 286 9 409 -6 46 -6 54 -4 77 19 29 29 33 63 12 93 -13 16 -27 19 -107 19
-89 0 -92 1 -113 28 -19 26 -21 44 -25 213 -2 128 0 188 8 198 9 11 60 15 224
18 187 4 220 7 276 27 117 41 179 92 232 191 21 40 24 58 24 160 0 103 -3 121
-26 171 -50 107 -131 166 -270 195 -62 14 -109 15 -289 8 -283 -10 -335 -10
-460 0 -90 7 -108 5 -127 -9z m882 -150 c42 -21 69 -43 90 -73 28 -41 30 -49
30 -140 0 -85 -3 -102 -24 -135 -54 -88 -149 -117 -380 -117 -130 0 -157 3
-173 17 -16 15 -18 35 -18 218 0 229 2 237 75 254 22 6 108 9 190 8 145 -2
152 -3 210 -32z"/>
<path d="M2418 2511 c-146 -47 -242 -162 -224 -271 8 -52 64 -100 117 -100 51
0 75 13 95 51 18 36 12 74 -18 106 -28 30 -12 55 54 83 110 47 221 36 291 -30
40 -36 41 -41 45 -109 4 -69 4 -71 -30 -105 -38 -38 -74 -48 -263 -72 -155
-21 -214 -43 -281 -108 -78 -76 -102 -173 -69 -283 20 -66 81 -135 153 -170
54 -26 65 -28 187 -28 120 0 134 2 187 27 31 14 74 44 96 67 l40 41 12 -30
c53 -128 277 -145 363 -28 28 37 45 213 28 276 -15 54 -49 74 -89 51 -26 -14
-27 -19 -32 -120 -7 -124 -22 -159 -70 -159 -32 0 -58 21 -65 53 -2 12 -6 159
-8 327 -3 292 -4 308 -26 364 -33 83 -94 140 -178 166 -85 26 -234 27 -315 1z
m360 -608 c-6 -128 -28 -184 -91 -238 -96 -82 -271 -88 -353 -12 -60 55 -64
150 -8 208 33 35 94 56 199 69 127 16 179 29 216 55 19 13 36 24 38 25 2 0 2
-48 -1 -107z"/>
</g>
</svg>
